<svg version="1.1" id="Vrstva_1" xmlns="http://www.w3.org/2000/svg" x="0" y="0" viewBox="0 0 90 90" style="enable-background:new 0 0 90 90" xml:space="preserve"><style>.st1{fill:none;stroke:#fff;stroke-width:.75;stroke-linecap:round;stroke-linejoin:round;stroke-miterlimit:10}</style><linearGradient id="SVGID_1_" gradientUnits="userSpaceOnUse" x1="19.269" y1="1482.218" x2="76.728" y2="1428.791" gradientTransform="translate(0 -1413.386)"><stop offset="0" style="stop-color:#ff0a89"/><stop offset=".147" style="stop-color:#ff0e84"/><stop offset=".325" style="stop-color:#ff1975"/><stop offset=".517" style="stop-color:#ff2c5d"/><stop offset=".721" style="stop-color:#fe463b"/><stop offset=".931" style="stop-color:#fe6710"/><stop offset="1" style="stop-color:#fe7300"/></linearGradient><circle cx="44.9" cy="45" r="44.3" style="fill:url(#SVGID_1_)"/><path class="st1" d="M39.6 34.9c0-2.4-1.9-4.3-4.3-4.3S31 32.5 31 34.9s1.9 4.3 4.3 4.3 4.3-1.9 4.3-4.3zm3.7 21.5c0-1.8-1.4-3.2-3.2-3.2-1.8 0-3.2 1.4-3.2 3.2s1.4 3.2 3.2 3.2c1.8-.1 3.2-1.5 3.2-3.2z"/><circle class="st1" cx="55.2" cy="41.2" r="4.1"/><path class="st1" d="m44.6 52 5.7-6.2m-8.5-8.5 7 2.2m-12 2 2 9.2M64 31.4 43.5 20.7 23.1 31.4s-2.3 24.7 20.5 37.1C66.4 56.1 64 31.4 64 31.4zm6.5 3.4c-1.1 18.9-9.8 30.6-21.2 37.8"/></svg>