<svg xmlns="http://www.w3.org/2000/svg" viewBox="0 0 230 230" style="enable-background:new 0 0 230 230" xml:space="preserve"><path d="M70 125.3c-.2-.8-.5-1.4-.7-2.1l-.9-2.1c-.6-.8-1.1-1.7-1.8-2.5-.3-.4-.7-.8-.9-1-.6-.5-1.1-.8-1.7-1.2-.4-.3-.8-.6-1.3-.8s-.9-.6-1.4-.8c-.7-.4-1.3-.8-2.1-1.1-.7-.4-1.4-.8-2.1-1-.6-.3-1.1-.6-1.7-.8-.5-.2-.8-.5-1.3-.7-.4-.2-.8-.5-1.2-.7-.4-.2-.8-.5-1.1-.7l-.6-.3c-.4-.2-.8-.5-1.1-.7-.3-.2-.5-.3-.7-.5-.3-.2-.6-.4-.8-.6-.3-.2-.6-.4-.8-.6-.4-.2-.8-.4-1-.7-.5-.4-1-.8-1.5-1.3l-1.7-1.7c-.1-.1-.1-.3-.1-.5 0 0 .2-.1.3-.1h.7c2.1 0 4.2.2 6.3.5 1.4.2 2.8.3 4.2.5 1.5.2 3 .4 4.5.7.7.1 1.3.1 1.9.3 1.3.3 2.5.3 3.8-.1.2-.1.5-.1.7-.2.3-.2.7-.4.9-.5.7-.2 1.1-.8 1.7-1.2.5-.4.8-.9 1.1-1.5.2-.4.4-.8.6-1.1.1-.2.2-.4.2-.7.1-.4.3-.7.3-1 .1-.5.1-.9 0-1.4 0-.7-.1-1.3-.2-2V95c-.2-.4-.4-.8-.5-1.2-.3-.8-.8-1.3-1.2-1.9-.5-.6-1.1-.9-1.7-1.4-.6-.4-1.3-.7-2-.8l-1.2-.3-1.2-.3c-.5-.1-.8-.2-1.3-.2-.6-.1-1-.3-1.6-.4-.9-.2-1.9-.3-2.8-.5-1.2-.2-2.4-.4-3.6-.5-1.1-.1-2.3-.2-3.3-.3h.8-5.8c.3 0 .6 0 .8.1h-.2c-1.7.1-3.3.3-4.9.8-1 .3-2.1.7-3 1.1-1.1.5-2.2 1.1-3.2 1.9-1 .8-2 1.8-2.7 2.8-.6.8-1.1 1.8-1.5 2.7-.5 1.3-.8 2.6-.9 4.1 0-.3 0-.4-.1-.6v4-.4c.1.7.2 1.3.3 2 .1.4.1.7.2 1 .3.9.6 1.9.8 2.8.3.7.7 1.4 1 2 .5.8 1 1.6 1.7 2.3.5.6 1.1 1.1 1.7 1.7.3.3.5.5.8.7.3.3.7.5 1 .7.2.1.3.2.5.3.2.1.4.3.6.4l.9.6c.3.2.7.4.9.6.3.2.6.3.8.5.3.2.7.4.9.5.5.2.9.5 1.3.7.6.3 1.1.6 1.7.8.5.2.9.5 1.4.7.5.2.8.5 1.3.7.5.3.9.6 1.5.8.8.4 1.5.8 2.2 1.2.7.5 1.3.9 2 1.4 1.2.9 2.3 2 3.6 2.9.1.1.1.2.1.4-.1 0-.2.1-.3.1-1 0-2-.1-3-.1-1.6-.1-3.2-.3-4.8-.5-1.5-.2-3-.4-4.4-.6-.8-.1-1.8-.3-2.6-.4-1-.2-2.2-.3-3.2-.5-1.1-.2-2.2-.2-3.2.2-.8.2-1.4.6-2.2.9-1.3.8-2.2 1.8-2.8 3.1-.4.8-.8 1.7-.8 2.6v-.4 2.3-.6c.1.7.2 1.3.4 1.9.2.7.5 1.2.8 1.8.6.8 1.2 1.6 2.2 2.2.8.5 1.5.8 2.3 1.1.7.2 1.3.3 2 .4.7.2 1.2.3 1.9.5.8.2 1.4.3 2.2.4.8.1 1.7.3 2.4.4.7.1 1.2.2 1.9.2.5.1.9 0 1.4.1.8.2 1.6.1 2.3.2.8.1 1.7.1 2.5 0 1.4-.1 2.8.2 4.2-.2.5-.1 1 0 1.5-.2.4-.2.8-.2 1.3-.2.1 0 .1 0 .2-.1.4-.1.7-.2 1-.3s.7-.1 1-.3c.7-.3 1.3-.6 1.9-.9.5-.2.8-.5 1.2-.7.2-.1.5-.3.7-.5.4-.2.8-.5 1-.7.5-.4.9-.8 1.4-1.3.3-.3.6-.5.8-.8.3-.4.5-.7.8-1 .3-.4.5-.8.7-1.1.7-1.4 1.1-2.9 1.3-4.5.1-1 .1-2.1.1-3.2-.1-.8-.4-2.1-.7-3.4zm42.7-20.9V90.7c0-.7-.3-.8-.8-.8h-2.4c-.4 0-.7.2-.8.5-.5.9-1 1.9-1.5 2.8-.6 1-1.1 2.2-1.6 3.2-.2.3-.3.7-.5.9-.1.2-.3.2-.4 0-.2-.3-.3-.7-.5-.9-.6-1-1-2.1-1.6-3.1-.5-.9-.9-1.9-1.4-2.8-.2-.4-.6-.6-.9-.6H98c-.2 0-.4.1-.5.1-.4.2-.3.6-.3.9v13.6c.1.5.2.7.8.8h2.5c.6 0 .8-.3.8-.8v-1.6c.1-1.9-.1-3.8-.5-5.6 0-.1.1-.2.1-.3.1.1.3.1.3.2.2.6.4 1.1.7 1.6.5.9 1 2 1.5 2.9.2.4.6.7 1 .6h1.5c.6 0 .8-.3 1-.8.3-.6.6-1.1.8-1.7.3-.7.6-1.2.8-1.9.2-.5.4-.9.6-1.4 0-.1.2-.1.3-.1 0 .1.1.2.1.3 0 .2-.1.4-.1.7-.3 1-.5 2.2-.6 3.3v3.9c0 .6.2.8.8.8h2.4c.5-.2.7-.4.7-1zm13.1.8h2.7c.4 0 .5-.3.6-.6V90.7c0-.8-.3-1-1-1H126c-.7 0-.8.3-.8.9v3.7c0 1.3.2 2.5.5 3.8 0 .1 0 .2-.1.3-.1-.1-.3-.1-.3-.2-.4-1.1-.9-2.1-1.6-3-1-1.7-2.2-3.4-3.3-5-.1-.2-.5-.4-.7-.4h-3c-.1 0-.3.1-.4.2-.4.2-.3.6-.3.8v13.8c0 .2.2.4.4.5.2 0 .4.1.6.1h2.2c.6 0 .8-.3.8-.8 0-2.4.1-5-.3-7.4 0-.1.1-.2.1-.3.1.1.3.1.3.2.4.8.8 1.7 1.2 2.4 1.1 1.8 2.3 3.6 3.5 5.4.2.4.6.5 1 .5zM93.7 93.7c-.3-1.2-1-2.3-2.1-3-1.1-.8-2.5-1.1-3.8-1.1-1-.1-2.1.1-3 .4-.8.2-1.5.6-2.2 1-1.3 1-1.9 2.5-2 4.2v3.7c0 1.1 0 2.3.5 3.3.4.8.8 1.6 1.6 2.3 1 .8 2.2 1.1 3.4 1.2 1.2.1 2.4.1 3.7-.2.8-.2 1.6-.6 2.3-1 1.4-1.1 2-2.5 2-4.2.1-1.1 0-2.3 0-3.5-.1-1.2-.1-2.2-.4-3.1zm-5.7 8.2c-.7.1-1.3.1-2-.1s-1.2-1-1.2-1.7v-5c0-.8.5-1.5 1.3-1.7.8-.3 1.6-.3 2.3 0 .7.2 1.2.9 1.2 1.7v4.8c.1 1-.5 1.9-1.6 2zm48.6 2.6V90.4c-.1-.4-.4-.7-.8-.7h-2.7c-.2 0-.4 0-.5.1-.4.2-.3.6-.3.8v13.8c.1.5.3.6.7.6h2.8c.5.2.8 0 .8-.5zm17 4.6c-.4 0-.5.1-.6.5 0 .1 0 .3-.1.4-.3.8-.5 1.8-.8 2.6-.2.8-.5 1.7-.7 2.5-.2.8-.5 1.7-.7 2.5-.2.8-.5 1.7-.7 2.5-.2.8-.4 1.6-.6 2.3 0 .1-.2.2-.2.3-.1-.1-.2-.2-.2-.3-.1-.1-.1-.3-.1-.5-.2-.7-.3-1.3-.5-1.9s-.4-1.1-.5-1.7c-.2-.6-.3-1-.5-1.6-.2-.7-.4-1.2-.5-1.9-.2-.6-.3-1-.5-1.6-.2-.6-.3-1.2-.5-1.8s-.3-1-.5-1.6c-.1-.5-.2-.6-.7-.6-.4 0-.5.1-.6.6-.1.6-.3 1.1-.5 1.7-.3 1-.6 2-.8 3-.4 1.2-.7 2.4-1 3.8-.4 1.4-.8 2.8-1.1 4.1 0 .1-.1.2-.2.2s-.2 0-.3-.1c-.1-.1-.1-.2-.1-.3l-.3-1.5c-.2-.8-.4-1.7-.7-2.4-.2-.8-.4-1.6-.7-2.4-.2-.7-.4-1.3-.6-2-.2-.8-.5-1.8-.7-2.6-.2-.6-.3-1.1-.5-1.8-.1-.5-.2-.5-.7-.6-.5 0-.6.1-.4.6.1.3.2.7.3.9.2.6.3 1 .5 1.6.2.8.5 1.7.7 2.5.2.8.5 1.6.7 2.4.3.8.5 1.8.7 2.6.2.6.3 1.1.5 1.7.3.9.5 1.9.8 2.8.1.3.2.4.5.4.6 0 .6 0 .7-.5 0 0 0-.1.1-.1.2-.8.5-1.6.7-2.4.2-.8.5-1.6.7-2.3.2-.8.5-1.6.7-2.4.2-.8.4-1.5.7-2.3.2-.6.4-1.2.5-1.8.1-.5.3-1 .4-1.5 0-.1.1-.1.2-.2l.2.2c.1.4.1.7.2 1 .2.8.4 1.6.7 2.3.2.6.4 1.1.5 1.7.3.8.5 1.8.8 2.6.2.6.3 1.1.5 1.7.2.6.3 1 .5 1.6s.4 1.2.5 1.8c.1.7.3.8.9.8.1 0 .3-.1.3-.3.2-.5.3-.9.4-1.4.2-.6.3-1.2.5-1.8.2-.7.4-1.3.6-2 .2-.6.3-1.1.5-1.7.2-.6.4-1.2.5-1.8.2-.8.5-1.7.7-2.4.2-.7.4-1.2.5-1.9.2-.6.3-1.2.5-1.8-.1-.4-.1-.4-.6-.4zm22.9 8.7c1.1 0 2.1.6 2.6 1.6.4.7.8 1.4 1 2.1l1.2 2.4c.3.6.5.7 1 .7.2 0 .3-.1.2-.3-.1-.2-.2-.3-.2-.5-.6-1.1-1.1-2.2-1.7-3.3-.5-1-.8-2.1-2-2.6-.1 0-.1-.2-.1-.2 0-.1.1-.1.2-.1.8-.1 1.5-.4 2.1-.8.9-.8 1.3-1.9 1.3-3.1s-.2-2.4-1.1-3.4c-.8-.9-2-1.2-3.2-1.2h-6.2c-.2 0-.4.1-.4.3v15c0 .1.1.3.2.3.5.2.8 0 .8-.6v-5.9c0-.2 0-.4.3-.4h4zm-3.8-.8c-.3 0-.4-.1-.4-.4v-6.2c0-.3.1-.4.4-.4h5.6c1.2 0 2.3.8 2.7 2 .3.9.4 1.9.1 2.7-.4 1.2-1.2 2-2.4 2.2-.4.1-.8.1-1.1.1h-4.9zm11.9 18.8v-7.2c0-.1 0-.4-.1-.4-.2-.1-.5-.1-.7 0-.1 0-.1.3-.1.4v6.6c0 1.6 0 3.2.1 4.9 0 .6.1 1.1.1 1.8 0 .1 0 .2-.1.2h-.2l-.2-.2c-.6-.8-1-1.7-1.6-2.4-.6-.8-1.2-1.8-1.9-2.6-.8-1.2-1.7-2.4-2.6-3.7-.8-1.1-1.6-2.3-2.3-3.4-.3-.5-.6-.8-.9-1.2-.2-.3-.5-.2-.8-.1-.1 0-.2.2-.2.4v14.6c0 .3.1.4.4.4.5 0 .5-.1.5-.4 0-4.3-.1-8.6-.1-13 0-.1.1-.2.1-.3.1.1.3.1.3.2.6.8 1.1 1.8 1.7 2.6 1 1.5 2.2 3 3.2 4.5 1.2 1.7 2.4 3.5 3.7 5.2.2.3.5.7.7.9.2.2.6.3.8.2s.2-.4.2-.6v-7.4zm-77-2.7c0-1.2-.3-2.4-1-3.5-.8-1.1-2.1-1.6-3.4-1.8-1.2-.2-2.5-.1-3.8.3-.8.3-1.4.6-2 1.1-.9.9-1.4 2.2-1.4 3.6v6.2c0 1.3.5 2.5 1.4 3.5.8.8 2 1.2 3.2 1.4s2.3.1 3.6-.3c.7-.2 1.3-.6 1.9-1 .9-.8 1.4-1.9 1.5-3 .1-1.2.1-2.5.1-3.8-.1-.9-.1-1.8-.1-2.7zm-1.1 5.7c0 .8-.2 1.6-.7 2.3-.7.9-1.5 1.5-2.5 1.7-1.1.3-2.3.3-3.4 0-1.3-.4-2.3-1.1-2.7-2.4-.3-.8-.4-1.5-.4-2.3v-5c0-1.1.3-2.2.9-3 .5-.6 1-.8 1.6-1.1 1-.4 2.1-.5 3.1-.4 1.4.1 2.7.7 3.5 2 .4.7.6 1.4.6 2.3v3c.1 1 .1 2 0 2.9zm62.6-5.7c0-.8-.1-1.6-.5-2.4-.7-1.5-1.8-2.4-3.4-2.8-1.5-.4-2.9-.4-4.4.1-.8.3-1.5.6-2.1 1.2-.9.9-1.4 2.2-1.4 3.6v6.2c0 1.3.5 2.5 1.4 3.5.8.8 2 1.2 3.2 1.4 1.2.2 2.3.1 3.6-.3.7-.2 1.3-.6 1.9-1 .9-.8 1.4-1.9 1.5-3.1s.1-2.5.1-3.8c.1-.8.1-1.7.1-2.6zm-1 5.7c0 .8-.2 1.6-.7 2.3-.7.9-1.5 1.5-2.6 1.8-1.1.3-2.3.3-3.4-.1-1.3-.4-2.3-1.1-2.7-2.4-.3-.8-.3-1.5-.3-2.3v-5c0-.9.2-1.9.8-2.7.5-.8 1.1-1.2 1.9-1.5 1.4-.5 2.8-.5 4.1-.1 1.3.4 2.3 1.1 2.6 2.4.2.6.3 1.2.3 1.9.1.9 0 1.8 0 2.7v3zm-72.2-19.2c0 1.4.4 2.8 1.4 3.8.8.8 2 1.2 3.2 1.4.9.1 1.9.1 2.8-.1 1.1-.2 2.2-.7 2.9-1.6s1.1-2.1 1.2-3.2c.1-1.8 0-3.6 0-5.4 0-.8-.1-1.8-.4-2.6-.2-.7-.6-1.2-1-1.7-.8-.9-2-1.3-3.1-1.5-1.2-.2-2.4-.1-3.7.3-.8.3-1.4.6-2 1.1-.8.8-1.3 1.8-1.4 3-.1 1.2-.1 2.5-.1 3.8.2.9.1 1.8.2 2.7zm1-5.6c0-1 .3-2 .9-2.8.6-.8 1.3-1.1 2.2-1.3.8-.3 1.6-.3 2.4-.2 1.5.1 2.8.7 3.7 2 .4.7.6 1.5.6 2.3v5.9c0 1-.3 2-.9 2.8-.6.8-1.4 1.1-2.3 1.3-1.1.3-2.3.3-3.4 0-1.3-.4-2.3-1.1-2.8-2.4-.3-.7-.4-1.4-.4-2.1v-2.6c0-1.1-.1-2 0-2.9zm-5.3 23.1c-.6-.7-1.3-1-2.2-1.2-.9-.2-1.9-.4-2.8-.5-.9-.2-2-.2-2.8-.7-.8-.4-1.5-.9-1.7-1.9-.3-1.5.2-2.9 1.7-3.7 1.2-.6 2.4-.7 3.8-.5.6.1 1.1.3 1.6.5.9.4 1.6 1.2 2.2 2.2.3.5.3.5.8.3h.1c.2-.1.3-.2.2-.4l-.3-.6c-.8-1.3-1.8-2.2-3.3-2.5-.9-.2-1.8-.3-2.7-.2-1 .1-2.1.3-2.9.8-1.2.8-1.9 1.9-1.9 3.3-.1 2.1.8 3.2 2.6 3.8.8.3 1.7.4 2.5.6 1.1.2 2.3.3 3.4.7.8.4 1.5.8 1.8 1.8.3 1 .2 2.1-.5 3-.5.8-1.2 1-2.1 1.2-1 .3-2.2.3-3.3.2-1.3-.2-2.4-.8-3.2-2-.2-.4-.5-.8-.7-1.1-.1-.3-.3-.3-.6-.2-.3.2-.5.2-.3.6.2.4.4.8.7 1.2.6.9 1.4 1.7 2.5 2.1.8.3 1.8.5 2.5.4 1.2 0 2.6-.2 3.8-.8.9-.5 1.5-1.1 1.9-2.2.3-.8.3-1.5.2-2.3-.3-.8-.5-1.5-1-1.9zm108.3 1.7c-.1-.7-.3-1.2-.8-1.7-.6-.7-1.3-1-2.2-1.2-.9-.2-1.9-.4-2.8-.5-.9-.2-2-.2-2.8-.7-.8-.4-1.5-.9-1.7-1.9-.3-1.5.2-2.9 1.7-3.7 1.2-.6 2.4-.7 3.8-.5.6.1 1.1.2 1.6.5.9.4 1.6 1.2 2.2 2.2.3.5.3.5.8.3h.1c.2-.1.3-.2.1-.4-.2-.4-.4-.8-.7-1-.8-1.1-1.8-1.8-3-2.1-.8-.2-1.6-.2-2.4-.2-1.1 0-2.2.3-3.2.8-.9.6-1.6 1.4-1.8 2.5-.5 2.3.5 3.9 2.5 4.6.8.3 1.6.4 2.4.6 1.1.2 2.3.3 3.4.7.8.4 1.5.8 1.8 1.8.3 1 .2 2-.5 2.9-.5.8-1.2 1.1-2.1 1.3-1.1.3-2.2.3-3.3.2-1.3-.2-2.4-.8-3.2-2-.3-.4-.5-.8-.7-1.2-.1-.3-.4-.2-.6-.1-.2.1-.5.2-.3.5.2.4.4.8.7 1.3.6 1 1.4 1.7 2.5 2.1.8.3 1.8.5 2.6.4 1.2 0 2.4-.2 3.7-.8.9-.5 1.5-1.1 1.9-2.2.4-1 .4-1.7.3-2.5zm-110.4-22c-1.1-.3-2.3-.4-3.4-.6-.8-.1-1.6-.3-2.4-.6-.8-.4-1.4-.9-1.7-1.9-.4-1.6.5-3.2 2-3.8 1.2-.5 2.5-.6 3.8-.3 1.2.2 2.2.8 2.9 1.8.2.4.5.7.7 1 0 .1.2.2.2.2l.6-.3c.1 0 .1-.2 0-.3-.3-.5-.5-.8-.8-1.3-1-1.4-2.5-2-4.3-2.1-1-.1-2.1 0-3.1.4-.8.3-1.4.6-2 1.2-.8.9-1.1 2.2-.9 3.4.1.9.6 1.8 1.3 2.3.8.6 1.9.8 2.9 1 1.2.2 2.5.4 3.8.7.8.2 1.4.5 1.9 1.1.5.6.6 1.2.5 2 0 .8-.3 1.7-.9 2.3-.7.6-1.3.8-2.2.9-1.3.2-2.5.3-3.8-.2-.9-.3-1.6-.8-2.2-1.6-.3-.4-.5-.8-.7-1.3-.1-.3-.3-.3-.6-.1-.2.1-.5.2-.3.6.3.5.5.9.8 1.4.6.9 1.4 1.6 2.4 1.9.8.3 1.8.5 2.6.4 1.2 0 2.4-.2 3.7-.8.8-.4 1.3-.9 1.7-1.7.3-.6.4-1.2.4-1.9 0-.8-.1-1.6-.6-2.3-.5-.8-1.3-1.2-2.3-1.5zm68.9 2.7h6.7c.3 0 .4.1.5.4.2.6.5 1.1.7 1.7.3.8.7 1.5.9 2.3.3.7.5.8 1 .7.1 0 .2-.2.2-.3 0-.2-.1-.4-.2-.6-.3-.6-.5-1.2-.8-1.8-.4-.8-.7-1.7-1-2.5-.3-.8-.6-1.5-.9-2.3-.3-.8-.6-1.4-.8-2.2-.2-.6-.5-1-.7-1.6-.3-.8-.6-1.5-.9-2.3-.2-.6-.5-1-.7-1.6-.2-.5-.2-.5-.7-.5-.3-.1-.5.1-.6.4-.2.6-.4 1-.7 1.6-.2.6-.5 1.1-.7 1.8-.2.6-.4 1-.7 1.6-.4.8-.7 1.8-1 2.6-.3.8-.6 1.5-.9 2.3-.4.8-.7 1.7-1 2.6-.4.8-.7 1.7-1 2.5v.3c.3.2.8 0 .9-.3.3-.8.6-1.4.8-2.2.3-.8.7-1.5.9-2.3.3-.2.4-.3.7-.3zm0-1.1c.3-.8.7-1.6.9-2.3.4-.9.7-1.9 1-2.7.2-.5.4-1 .7-1.5.2-.5.3-.9.5-1.3 0-.1.1-.1.2-.2l.2.2c.2.6.4 1.2.7 1.8.4.9.8 1.9 1.1 2.8.3.8.6 1.4.8 2.2.2.4.3.8.5 1.2.1.3 0 .3-.2.3h-6c-.4-.2-.4-.2-.4-.5zm37.7 5.8c0-.4-.1-.5-.5-.5h-7.9c-.3 0-.4-.1-.4-.4v-5.7c0-.3.1-.4.4-.4h6.6c.7 0 .6.2.6-.6 0-.2-.1-.3-.3-.3h-6.9c-.3 0-.4-.1-.4-.4v-5.3c0-.9-.2-.8.8-.8h7.2c.3 0 .4-.1.4-.5s-.1-.5-.4-.5h-8.4c-.6 0-.6 0-.6.6v14.4c0 .5 0 .5.5.5h8.7c.5.3.6.2.6-.1zm-61.3 4.1c0-.1-.1-.2-.1-.2-.4-.2-.8 0-.8.5v9.7c0 .8-.1 1.5-.4 2.2-.5 1.3-1.4 2.1-2.6 2.4-.9.3-1.9.3-2.8.2-2.4-.4-3.7-2-3.7-4.1-.1-3.4 0-6.9 0-10.2v-.4c0-.1-.1-.2-.2-.2-.5-.2-.8 0-.8.5v9.1c0 .8 0 1.6.2 2.4.2.8.6 1.5 1.1 2.2.8.8 1.7 1.3 2.8 1.5 1.7.3 3.2.2 4.7-.6 1.1-.6 1.9-1.6 2.2-2.8.2-.8.3-1.6.3-2.3v-9.3c.2-.3.2-.5.1-.6zm-14.3-19.2h-8.4c-.6 0-.6 0-.6.6v14.6c0 .1.1.3.2.4.5.2.8 0 .8-.5v-6.3c0-.3.1-.4.4-.4h6.6c.4 0 .5-.1.5-.5s-.1-.5-.5-.5h-6.6c-.3 0-.4-.1-.4-.4v-5.9c0-.3.1-.4.4-.4h7.7c.1 0 .3 0 .3-.1 0-.2.1-.5 0-.7.1.1-.2.1-.4.1zm28.2 19h-10.2c-.1 0-.2 0-.2.1 0 .2-.1.5 0 .7 0 .1.2.2.4.2h4.2c.3 0 .4.1.4.4v13.6c0 .5.1.5.5.5s.5 0 .5-.5v-13.6c0-.5 0-.5.5-.5h4.1c.4 0 .4-.1.4-.5-.2-.3-.2-.4-.6-.4zm-20.9-18.2c.4 0 .5 0 .5.5v13.9c.1.4.4.3.7.3.2 0 .3-.1.3-.4v-13.8c0-.3.1-.4.4-.4h4.2c.4 0 .5 0 .5-.5 0-.4 0-.5-.5-.5h-10.1c-.1 0-.2 0-.2.1 0 .2-.1.5 0 .7 0 .1.3.2.4.2 1.1-.1 2.5-.1 3.8-.1zm-7.5 32.8h-7.4c-.3 0-.4-.1-.4-.4v-14.1c0-.1-.1-.2-.1-.2-.2 0-.5-.1-.7 0-.1 0-.2.3-.2.4v14.5c0 .2 0 .4.4.4h8.4c.4 0 .4-.2.4-.5.1.1 0-.1-.4-.1zm32.8-14.4c0-.1-.1-.2-.1-.2-.4-.2-.8 0-.8.5v14.5c0 .3.1.4.4.4.5 0 .6-.1.6-.6v-14.2c-.1-.1-.1-.3-.1-.4zM49 145.3h5.7H49z" style="fill:#b0adad"/></svg>