<svg xmlns="http://www.w3.org/2000/svg" viewBox="0 0 90 90" style="enable-background:new 0 0 90 90" xml:space="preserve"><path d="M29.1 74.3c3 1.4 8.7 3.1 18.1 3.1h21.2c3 0 5.4-2.4 5.4-5.4h0c0-3-2.4-5.4-5.4-5.4h1.2c3 0 5.5-2.3 5.6-5.3.1-3.1-2.4-5.6-5.4-5.6h3c3 0 5.4-2.4 5.4-5.4v0c0-3-2.4-5.4-5.4-5.4h1.5c3 0 5.4-2.4 5.4-5.4v0c0-3-2.4-5.4-5.4-5.4h-21c2.2-6.5 3.7-13.8 1.5-20.2-1.2-3.6-6.3-3.5-7.4.1-2.9 9.3-9 20.1-18.8 25.7m45.3 5.1H63.7m7 10.9h-8.3m6.8 10.9h-7.4m-51.1 9.1h11.7V39H10.7" style="fill:none;stroke:#000;stroke-width:1.25;stroke-linecap:round;stroke-linejoin:round;stroke-miterlimit:10"/></svg>