<svg version="1.1" id="Vrstva_1" xmlns="http://www.w3.org/2000/svg" x="0" y="0" viewBox="0 0 230 230" style="enable-background:new 0 0 230 230" xml:space="preserve"><style>.st0{fill:#b0adad}</style><path class="st0" d="M60.6 109.9c-1.6-1.3-3.2-2.7-4.9-4l-.3-.3c-.1-.3.1-.4.2-.6.1-.5.4-1 .6-1.4.2-.6.5-1.2.7-1.7.2-.4.3-.9.5-1.3.3-.6.5-1.2.7-1.8.2-.6.5-1.2.7-1.9.1-.3.1-.4-.3-.4h-.4c-.2 0-.4 0-.5-.1-.3-.1-.7-.1-1-.2-.3 0-.5-.1-.8-.1-.2 0-.5-.1-.7-.1-.3 0-.6 0-.9-.1-.3-.1-.6-.1-.9-.1-.3 0-.6-.1-.9-.1-.2 0-.4-.1-.6-.1-.3 0-.7 0-1-.1-.3-.1-.6-.1-1-.1-.2 0-.5 0-.7-.1 0-.3-.1-.6-.1-.8 0-.2-.1-.5-.1-.7 0-.4 0-.7-.2-1.1v-.4c0-.4 0-.8-.2-1.2 0-.2-.1-.4-.1-.6 0-.4 0-.7-.1-1.1-.1-.3-.1-.5-.1-.8V88c-.1-.4-.1-.9-.2-1.3 0-.2-.1-.5-.1-.8 0-.2-.2-.2-.3-.1-.3.1-.5.2-.8.3-.5.2-.9.3-1.3.5-.6.2-1.2.5-1.8.7l-1.5.6c-.2.1-.5.2-.7.3-.4.2-.8.3-1.2.5-.4.2-.8.4-1.2.5-.2.1-.3 0-.4-.1l-.3-.3c-.7-.9-1.4-1.7-2.1-2.6-.3-.4-.7-.8-1-1.2-.4-.6-.9-1.1-1.3-1.7l-1.2-1.5h-.1l-1.2 1.5c-.4.5-.9 1.1-1.3 1.6-.5.6-.9 1.2-1.4 1.7l-1.5 1.8c-.2.2-.4.5-.6.8-.1 0-.2-.1-.3-.1-.3-.1-.6-.2-.9-.4-.2-.1-.5-.2-.8-.3-.2-.1-.4-.2-.7-.3-.5-.2-1-.4-1.6-.6-.4-.2-.9-.3-1.3-.5-.6-.2-1.2-.5-1.8-.8-.4-.2-.9-.3-1.3-.5-.1 0-.2-.1-.2-.1h-.3v.3c0 .3-.1.7-.2 1 0 .3 0 .5-.1.8 0 .3-.1.5-.1.8 0 .3-.1.6-.1.9 0 .3 0 .5-.1.8-.1.2-.1.5-.1.7 0 .3 0 .7-.1 1-.1.2-.1.5-.1.7 0 .2 0 .5-.1.7-.1.3-.1.7-.1 1.1v.2c0 .6-.1.7-.7.7-.4 0-.8.1-1.1.2-.1 0-.3 0-.4.1-.4 0-.8 0-1.2.2-.1 0-.3.1-.4.1-.4 0-.9 0-1.3.2-.2.1-.4 0-.6.1-.3 0-.5 0-.8.1s-.5.1-.8.1c-.3 0-.7 0-1 .1-.2.1-.5.1-.7.1-.2 0-.3 0-.5.1v.3c.2.4.3.8.5 1.2.1.3.2.5.3.8.1.2.2.5.3.7.2.5.4.9.6 1.4.2.4.4.9.6 1.3.2.4.3.8.5 1.2.2.4.4.9.5 1.3.1.2.2.4.2.6l-.3.3c-.8.6-1.5 1.2-2.3 1.8-.9.7-1.8 1.4-2.6 2.1-.7.6-1.4 1.1-2.1 1.7-.1.1-.2.1-.3.1v.1c.1 0 .2.1.3.1.9.7 1.8 1.4 2.6 2.2.9.8 1.9 1.5 2.8 2.3.5.4.9.8 1.4 1.2.1.1.2.2.3.2.2.1.2.3.1.5-.1.3-.2.6-.3.8l-.6 1.5c-.1.4-.3.8-.5 1.2l-.6 1.5c-.2.4-.4.8-.5 1.3s-.3.9-.5 1.3c-.1.3-.2.5-.3.8-.1.1-.1.3 0 .4.4.1.8.2 1.3.2.3 0 .6.1.9.1.2.1.5.1.7.1.3 0 .6 0 .9.1.3.1.5.1.8.1.2 0 .5 0 .7.1.3.1.7.1 1 .1s.7 0 1 .1c.1 0 .3.1.5.1.6 0 1.1.1 1.7.3.1.2.1.4.1.6 0 .4 0 .9.2 1.3.1.2 0 .4.1.6 0 .2 0 .5.1.7.1.4.1.7.1 1.1v.4c.1.4.1.8.2 1.2 0 .3.1.5.1.8v.2c0 .8.2 1.6.3 2.4v.2c.2 0 .4-.1.6-.2.2-.1.5-.2.8-.3.2-.1.4-.1.6-.2.5-.2 1-.4 1.6-.6.4-.1.8-.4 1.2-.5.4-.2.9-.3 1.3-.5s.9-.3 1.3-.5.8-.3 1.2-.5c.1 0 .2-.1.4-.1.3.3.6.6.8.9.5.6 1 1.2 1.5 1.9.5.6.9 1.1 1.4 1.7l1.2 1.5c.4.4.7.9 1.1 1.4v.1h.1c.1-.1.2-.3.2-.4.3-.4.6-.7.9-1.1.5-.6.9-1.1 1.3-1.7.4-.5.8-.9 1.2-1.4.7-.9 1.4-1.7 2-2.6 0-.1.1-.1.1-.1.1-.1.2-.1.3-.1.1 0 .2 0 .3.1.6.3 1.2.5 1.8.7l2.4.9c.2.1.4.1.6.2.2.1.5.2.7.3.5.2.9.3 1.4.5.4.2.9.3 1.3.5.1.1.2.1.4.1.2-.4.2-.5.2-.9 0-.9.2-1.7.3-2.6v-.2c.1-.3.1-.6.1-1 0-.2 0-.4.1-.7 0-.3.1-.5.1-.8 0-.4 0-.8.2-1.2 0-.1.1-.3 0-.4 0-.6.2-1.2.2-1.8.4-.1.8-.1 1.2-.2.3 0 .7 0 1-.1.4-.1.7-.1 1.1-.2.3 0 .6-.1 1-.1.2-.1.4-.1.6-.1.3 0 .7 0 1-.1.2-.1.3-.1.5-.1.5 0 .9 0 1.3-.2.2-.1.4 0 .6 0 .4 0 .9-.1 1.3-.2 0 0 0-.1.1-.1v-.1c-.2-.6-.5-1.2-.8-1.8-.2-.5-.4-1.1-.6-1.6-.2-.4-.3-.8-.5-1.2-.2-.4-.3-.9-.5-1.3s-.4-.9-.5-1.3c-.2-.4-.3-.9-.5-1.3-.1-.3-.1-.4.1-.6.9-.7 1.8-1.4 2.6-2.1 1-.8 2-1.7 3-2.5.4-.4.9-.7 1.3-1.1.1-.1.2-.2.2-.4-.4-.3-1.1-.9-1.8-1.5zm-22 10.9c-.2-.6-.5-1.2-.7-1.8-.2-.6-.5-1.2-.7-1.7 0-.1 0-.1-.1-.2-.2-.5-.2-.5-.7-.5h-7.8c-.4 0-.5 0-.7.4-.3.8-.7 1.6-1 2.4-.2.4-.3.7-.5 1.1-.1.2-.2.3-.4.3h-5.2c.2-.6.5-1.1.7-1.6.3-.6.5-1.2.8-1.8.3-.7.6-1.4 1-2.1.2-.5.5-1 .7-1.5.2-.6.5-1.1.7-1.7.3-.8.7-1.5 1-2.2.4-.9.8-1.8 1.2-2.6.3-.7.6-1.3.9-2 .3-.8.7-1.5 1-2.2.2-.5.5-1.1.7-1.6.1-.2.1-.3.2-.5.1-.1.2-.2.3-.2h5.5c.2 0 .4.1.5.3l1.5 3.3c.5 1 .9 2 1.4 3 .4.9.8 1.7 1.1 2.6.4.8.8 1.7 1.2 2.6.4.9.8 1.7 1.2 2.6.5 1 .9 2.1 1.4 3.1l.9 2.1c0 .1.1.2.2.3v.2c-.6 0-5.9 0-6.3-.1zm187.4-8.2v-.6c0-.2 0-.4-.1-.6-.1-.3-.2-.7-.3-1.1-.2-.6-.6-1.2-1-1.7-.7-.9-1.6-1.6-2.7-2-.1-.1-.3-.2-.4-.2-.4-.1-.7-.3-1.1-.2-.1 0-.1-.1-.2-.1-.2 0-.3-.1-.5-.1-.9-.1-1.8-.1-2.7 0h-.1c-.3 0-.6 0-.8.1-.1.1-.2.1-.3.1-.4 0-.7.2-1.1.3-.5.2-1.1.5-1.6.8-.6.3-1.1.8-1.5 1.3-.6.7-1.1 1.4-1.3 2.3-.2.5-.3 1.1-.4 1.7v1.8c0 .3 0 .6.1.9.1.4.1.9.3 1.3.1.2.2.5.3.8.5.9 1.2 1.7 2 2.4.5.4 1 .6 1.6.9.4.2.9.4 1.4.4h.1c.3.2.6.2.9.2.2 0 .4.1.6.1.1 0 .2.1.4.1.6 0 1.1 0 1.7-.1.5-.1.9-.1 1.4-.1.1 0 .2 0 .3-.1.4-.1.7-.2 1.1-.3l.9-.3c1.2-.6 2.1-1.4 2.9-2.5.1-.1.1-.2.1-.3-.4-.3-2.5-1.4-2.8-1.6l-.2.2c-.2.2-.4.4-.5.6-.4.3-.7.7-1.2.8-.2.1-.4.1-.6.2-.2.1-.3.1-.5.1h-.5c-.7-.1-1.4.1-2.1-.2h-.1c-.3 0-.5-.2-.8-.3-.8-.6-1.4-1.3-1.4-2.3v-.8h10.6c.2 0 .4-.1.5-.3v-1.1c-.3-.3-.3-.4-.4-.5zm-4.6-.4c-.1 0-.2.1-.3.1h-6c0-.4-.1-.8.1-1.2l.3-.6c.2-.4.6-.7 1-.9.6-.3 1.2-.4 1.9-.4.3 0 .6.1.9.1.4.1.8.3 1.2.5.5.3.9.8 1 1.4-.1.3.1.6-.1 1zm-96.6-1c0-.5 0-1-.2-1.4v-.2c0-.4-.2-.8-.3-1.1-.3-.7-.7-1.2-1.2-1.6-.5-.4-1-.7-1.6-.8-.6-.1-1.2-.2-1.8-.1-.2 0-.4.1-.5.1-.4 0-.8.1-1.1.3-.7.3-1.4.8-1.9 1.3s-.9 1-1.3 1.6c0 .1-.1.1-.1.2-.2-.1-.2-.2-.3-.3-.3-.9-.8-1.6-1.5-2.2-.6-.5-1.3-.8-2.2-.9-.6-.1-1.3.1-1.9.1-.1 0-.1 0-.2.1-.2.1-.5.2-.7.3-.7.3-1.3.7-1.8 1.2-.5.4-.9 1-1.2 1.6 0 .1-.1.2-.2.3-.1-.1-.1-.1-.1-.2 0-.5-.1-1-.1-1.4 0-.4 0-.8-.1-1.2 0-.1 0-.3-.1-.3-.5-.1-3.7-.1-4.3 0-.1.2-.1.5-.1.7v13.8c0 .1 0 .1.1.2h4.9c.1-.2.1-.4.1-.6v-7.3c0-.5.2-1 .3-1.5.1-.4.3-.8.6-1.2.5-.7 1.2-1 1.9-1.2.2 0 .4 0 .6.1.1 0 .2.1.3.1.4.1.7.4.8.8.2.4.3.9.3 1.4v9.3h4.9c.1-.2.1-.4.1-.6v-7.5c0-.3 0-.6.1-.8 0-.1.1-.2.1-.2.1-.6.4-1.1.8-1.6.3-.3.6-.6 1-.7.3-.1.6-.1.9-.1.3 0 .6 0 .9.1.4.2.7.5.8.9.2.6.2 1.1.2 1.7v8.3c0 .2 0 .4.1.6.6.1 1.1 0 1.7 0h3.3c.1-.2.1-.3.1-.5-.1-3.5-.1-6.5-.1-9.6zm-33.9-3.9c-1-2.3-2-4.5-3-6.8h-5.7c-.3 0-.4.1-.5.3-.2.4-.3.8-.5 1.2-.2.5-.5 1.1-.7 1.6s-.5 1.1-.7 1.6c-.2.5-.5 1.1-.7 1.6-.2.6-.5 1.1-.8 1.7l-.9 2.1c-.3.8-.7 1.5-1 2.2-.2.5-.5 1.1-.7 1.6-.3.6-.5 1.2-.8 1.8-.2.4-.3.8-.5 1.2-.2.4-.3.8-.5 1.1-.3.6-.5 1.2-.8 1.8-.1.1-.1.3-.1.4.1 0 .1.1.2.1h5.3c.1-.2.2-.3.3-.5.2-.4.3-.9.5-1.3s.4-.8.5-1.2c.2-.4.3-.8.5-1.1h8.6c0 .1.1.1.1.2.2.6.5 1.2.7 1.8.3.7.6 1.3.8 2 .1.1.1.2.3.2h6c.1 0 .1-.1.2-.1-1-2.3-2-4.5-3-6.8-1.1-2.2-2.1-4.5-3.1-6.7zm-3.8 5.7h-5.2c-.1-.2 0-.3 0-.4.2-.5.4-1 .7-1.6.3-.6.5-1.3.8-1.9.2-.6.5-1.1.7-1.7.1-.3.2-.6.3-.8.1-.1.1-.2.3-.3.2.4.3.8.5 1.2.2.5.4.9.6 1.4.2.4.3.8.5 1.2.2.6.5 1.2.7 1.8.1.2.2.4.3.7 0 .1 0 .2.1.4h-.3zm58-1.9c-.1-.3-.1-.7-.3-1-.1-.5-.4-1-.6-1.4-.5-.8-1.2-1.6-2.1-2.1-.3-.2-.6-.2-.8-.4-.3-.2-.7-.2-1-.3-.4 0-.9-.1-1.4-.1-.6.1-1.2 0-1.7.2h-.1c-.3 0-.6.2-.9.3-.5.2-1 .5-1.4.9l-.6.6c-.1.1-.1.1-.2 0v-6.7c0-.2 0-.4-.1-.7-.2-.1-.4-.1-.5-.1h-4.1c-.1 0-.2.1-.3.1v20c0 .1 0 .2.1.3h3c.2 0 .2-.1.3-.2.2-.6.3-1.1.5-1.7 0-.1.1-.2.2-.2.1.1.1.2.2.2.5.6 1.1 1.2 1.9 1.5.4.2.7.3 1.1.4.2 0 .3.1.5.2.3 0 .6.1 1 .1s.6.1 1 0c.2-.1.5-.1.8-.1.4 0 .8-.2 1.2-.3.7-.3 1.4-.7 2-1.2 1-.8 1.8-2.1 2.2-3.5 0-.1.1-.2.1-.2 0-.1.1-.3.1-.4 0-.7.1-1.4.1-2.2 0-.4 0-.8-.1-1.2 0-.1 0-.5-.1-.8zm-4.8 2.6v1c0 .4-.1.8-.2 1.2-.3.8-.8 1.5-1.6 1.8-.4.1-.7.2-1.1.2h-.5c-.3 0-.6-.1-.9-.2-.7-.4-1.2-.9-1.5-1.7-.1-.3-.2-.7-.2-1 0-1.1-.1-2.1 0-3.2.1-.9.5-1.7 1.3-2.2.8-.5 1.6-.7 2.6-.4.3.1.6.2.8.3.4.3.8.7 1 1.2.3.7.4 1.3.4 2-.1.4-.1.7-.1 1zm53.1-2c0-.6 0-1.2-.1-1.8v-.2c-.2-.3-.1-.7-.4-1.1-.3-.9-.9-1.6-1.6-2.1-.5-.3-1-.6-1.6-.7-.6-.1-1.1-.2-1.7-.1-.6.1-1.2 0-1.8.2-.5.2-1.2.4-1.7.8-.9.6-1.7 1.4-2.3 2.4 0 .1-.1.1-.1.2l-.1.1c-.1-.1-.1-.3-.1-.4v-2.4c0-.2 0-.4-.1-.6h-4c-.4 0-.4.1-.4.4v14.1c0 .1 0 .2.1.3h4.8c.1 0 .2 0 .3-.1.1-.3.1-.5.1-.8v-7.2c0-.6.1-1.1.4-1.6.4-.8 1-1.4 1.8-1.8.1 0 .2-.1.3-.1.2-.1.4-.1.7-.2.2 0 .3-.1.5-.1.4.1.7.2 1 .2 0 0 .1 0 .1.1.6.4.9.9 1 1.6v9.6c0 .1 0 .2.1.3h4.9c.1-.2.1-.5.1-.7-.2-2.6-.2-5.4-.2-8.3zm-19.8-.5c-.1-.5-.3-1-.5-1.5-.4-.7-.9-1.3-1.4-1.9-.8-.7-1.4-1.1-2.6-1.5-.1 0-.1-.1-.2-.1s-.2-.1-.3-.1c-.2 0-.4-.1-.7-.1-.1 0-.2-.1-.3-.1-.9 0-1.8-.1-2.7 0-.4 0-.7 0-1 .2h-.2c-.4 0-.7.2-1.1.3-.4.1-.8.3-1.1.5-1.3.7-2.3 1.8-3 3.1-.2.4-.3.8-.4 1.2-.1.4-.2.8-.2 1.1v2.8c0 .2.1.5.2.7.1.4.2.7.4 1.1.1.4.4.7.6 1 .5.7 1.1 1.3 1.9 1.8.4.2.7.4 1.1.6.5.2.9.5 1.4.5.1 0 .1 0 .1.1.2.1.4.1.7.1.2 0 .4 0 .6.1.2.1.5.1.7.1 1 .1 2-.2 2.9-.2h.1c.4-.2.8-.2 1.2-.4.3-.1.6-.2.8-.3.9-.4 1.7-1.1 2.4-1.9.2-.2.4-.5.6-.9-.9-.6-1.9-1.1-2.9-1.6-.1.1-.2.2-.3.2-.2.2-.3.4-.5.6-.4.3-.8.7-1.2.8-.1.2-.4.1-.5.2-.2.1-.4.1-.6.1-.6.1-1.3 0-1.9 0-.2 0-.4 0-.5-.1-.1 0-.1-.1-.2-.1-.4-.1-.8-.2-1.1-.5-.6-.5-1-1.1-1.1-1.9v-.3c0-.3 0-.5-.1-.8.2 0 .3-.1.4-.1h10.4c.2 0 .3-.1.3-.3 0-.8.1-1.7-.2-2.5zm-4.7 1.1H163c-.1 0-.2-.1-.2-.2 0-.8.1-1.5.7-2.1.4-.3.8-.6 1.4-.7.1 0 .2-.1.3-.1.5-.1 1.1-.1 1.6 0 .1 0 .1.1.1.1.6.1 1 .4 1.4.7.4.4.7.8.8 1.4 0 .2 0 .3.1.5 0 .3-.1.4-.3.4zm38.7-6.1c-.6-.1-1.1 0-1.6 0h-1.7v-3.4c0-.1 0-.3-.1-.4-.2 0-.5 0-.7.1-.2.1-.4.1-.6.1-.1 0-.2.1-.4.1-.1 0-.2.1-.3.1-.2 0-.4.1-.6.2-.1 0-.2 0-.3.1-.2 0-.4.1-.5.1-.1 0-.2.1-.4.1-.4 0-.7.2-1.1.3 0 .1-.1.1-.1.2v2.4c-.1.1-.2.1-.4.1h-2c-.4 0-.4.1-.5.4v2.7c0 .2.1.3.3.3h2.4v8.4c.1.5.2.9.4 1.4.2.5.4.9.7 1.3.1.1.2.2.3.2h5.1c.1 0 .1-.1.2-.1 0-.1-.1-.1-.1-.1-.7-.7-1.2-1.5-1.3-2.6v-.1c-.1-.3-.1-.7-.1-1v-7c0-.1 0-.2.1-.3h3c.3 0 .4-.1.4-.3v-2.8c0-.3 0-.4-.1-.5zm-53.5.2c0-.1-.1-.2-.2-.2h-4.7c-.1 0-.2.1-.2.2v14.5h4.6c.5 0 .5 0 .5-.5v-14zm-4.9-2.7c0 .6 0 .6.6.6h3.9c.2 0 .3-.1.3-.3v-2.9c0-.2-.1-.3-.3-.3h-4.4c-.1.2-.1.4-.1.5v2.4z"/><path class="st0" d="M34.3 110.1c-.2-.6-.5-1.2-.7-1.8-.3-.7-.5-1.3-.8-2-.1-.2-.2-.3-.4-.4-.1.2-.1.3-.2.5s-.1.3-.2.4l-1.2 2.7c-.4 1-.8 1.9-1.2 2.9 0 .1-.1.3-.1.4l.1.1H35c.1 0 .2 0 .4-.1 0-.4-.2-.8-.4-1.1-.1-.3-.4-.9-.7-1.6z"/></svg>