<svg width="257" height="257" viewBox="0 0 257 257" fill="none" xmlns="http://www.w3.org/2000/svg">
<path d="M103.596 130.7C103.596 151.357 91.8696 168.076 77.4329 168.076C62.9677 168.076 51.27 151.328 51.27 130.7C51.27 110.044 62.9962 93.3247 77.4329 93.3247C91.8696 93.2962 103.596 110.044 103.596 130.7Z" fill="white"/>
<path d="M111.613 185.566H98.0611C91.984 189.189 84.9369 191.3 77.4047 191.3C69.8725 191.3 62.8539 189.189 56.7483 185.566H54.209L38.2031 190.245L25.8778 204.567L22.1973 236.179H132.84V213.241L111.613 185.566Z" fill="#00ADEE"/>
<path d="M233.497 20.942H98.9453V135.922H148.589V171.586L195.038 135.922H233.497V20.942Z" fill="white"/>
<path d="M149.16 176.435C148.447 176.435 147.762 176.293 147.106 175.979C145.422 175.18 144.338 173.468 144.338 171.614V142.94C144.338 141.628 143.283 140.572 141.97 140.572H127.619C124.966 140.572 122.797 138.404 122.797 135.75C122.797 133.097 124.966 130.928 127.619 130.928H149.131C151.785 130.928 153.953 133.097 153.953 135.75V156.292C153.953 157.205 154.495 158.033 155.323 158.432C155.637 158.575 155.979 158.661 156.321 158.661C156.863 158.661 157.405 158.461 157.833 158.118L189.103 132.041C189.959 131.328 191.072 130.928 192.185 130.928H228.048C229.361 130.928 230.416 129.873 230.416 128.56V28.1599C230.416 26.8475 229.361 25.7918 228.048 25.7918H106.107C104.794 25.7918 103.739 26.8475 103.739 28.1599V71.2131C103.739 73.8665 101.57 76.0349 98.9169 76.0349C96.2636 76.0349 94.0952 73.8665 94.0952 71.2131V28.1599C94.0952 21.5407 99.4876 16.1769 106.078 16.1769H228.02C234.639 16.1769 240.003 21.5692 240.003 28.1599V128.589C240.003 135.208 234.61 140.572 228.02 140.572H194.781C194.239 140.572 193.697 140.772 193.269 141.114L152.241 175.323C151.385 176.036 150.273 176.435 149.16 176.435Z" fill="#06038D"/>
<path d="M77.4048 173.497C60.5145 173.497 47.2761 152.327 47.2761 125.28C47.2761 101.884 58.5459 87.9042 77.4048 87.9042C96.2638 87.9042 107.534 101.884 107.534 125.28C107.562 152.299 94.3237 173.497 77.4048 173.497ZM77.4048 97.5191C63.7956 97.5191 56.9196 106.849 56.9196 125.251C56.9196 148.333 67.5331 163.825 77.4048 163.825C87.3051 163.825 97.9186 148.333 97.9186 125.251C97.9186 106.849 91.0141 97.5191 77.4048 97.5191Z" fill="#06038D"/>
<path d="M20.029 241.001C17.3756 241.001 15.2073 238.833 15.2073 236.179C15.2073 215.038 20.3143 199.546 30.3858 190.13C39.0877 182.028 48.56 181.143 52.2119 181.143C52.697 181.143 53.0108 181.172 53.182 181.172C54.4088 181.257 55.6071 181.828 56.4345 182.826C57.2905 183.797 57.6899 185.052 57.6043 186.336C57.4331 188.846 55.2648 190.815 52.697 190.815C52.697 190.815 52.4117 190.815 52.3831 190.815C52.2975 190.815 52.2405 190.815 52.1549 190.815C48.8738 190.901 42.5114 191.899 36.7196 197.434C30.1004 203.768 26.0776 214.638 25.079 228.847C25.0219 229.503 25.2502 230.131 25.7067 230.616C26.1632 231.101 26.7623 231.358 27.4185 231.358H127.363C128.019 231.358 128.646 231.072 129.074 230.616C129.531 230.131 129.759 229.503 129.702 228.847C128.703 214.467 124.595 203.511 117.833 197.178C111.3 191.072 103.996 190.758 102.626 190.758C102.626 190.758 102.369 190.758 102.341 190.758C102.227 190.758 102.113 190.758 101.998 190.758C99.4307 190.758 97.348 188.846 97.1768 186.279C97.0912 184.995 97.4906 183.739 98.3465 182.769C99.2025 181.799 100.372 181.229 101.656 181.115C101.856 181.086 102.227 181.086 102.74 181.086C105.565 181.086 115.465 181.742 124.424 190.073C134.495 199.46 139.602 214.952 139.602 236.122C139.602 238.776 137.434 240.944 134.781 240.944H20.029V241.001Z" fill="#06038D"/>
<path d="M114.751 69.4446C114.751 67.8469 115.094 66.4204 115.779 65.1935C116.463 63.9667 117.348 62.911 118.432 62.0551C119.516 61.1992 120.772 60.543 122.198 60.0865C123.596 59.63 125.051 59.4017 126.563 59.4017C128.047 59.4017 129.531 59.63 130.986 60.115C132.441 60.6 133.753 61.2848 134.894 62.1978C136.036 63.1108 136.977 64.252 137.662 65.593C138.347 66.9339 138.717 68.4746 138.717 70.215C138.717 72.098 138.318 73.7813 137.519 75.2935C136.72 76.7771 135.722 78.1466 134.552 79.3449C133.382 80.5432 132.07 81.6274 130.672 82.5974C129.274 83.5675 127.961 84.4519 126.792 85.3079C125.622 86.1638 124.623 86.9627 123.824 87.7045C123.025 88.4463 122.626 89.2166 122.626 90.0155V90.5005H136.292C136.949 90.5005 137.519 90.8429 138.004 91.5561C138.489 92.2409 138.746 93.0683 138.746 94.0098C138.746 94.9513 138.489 95.7787 138.004 96.5205C137.519 97.2623 136.949 97.6047 136.292 97.6047H117.719C117.348 97.6047 116.948 97.5477 116.549 97.4335C116.149 97.3194 115.779 97.1482 115.408 96.9485C115.037 96.7488 114.751 96.492 114.523 96.1782C114.238 95.7787 114.124 95.4364 114.124 95.0655V89.9869C114.124 88.6175 114.523 87.3621 115.351 86.1638C116.178 84.9655 117.177 83.8242 118.403 82.7686C119.63 81.713 120.943 80.6858 122.341 79.6587C123.739 78.6601 125.051 77.6616 126.278 76.663C127.505 75.6644 128.503 74.6658 129.331 73.6672C130.158 72.6401 130.558 71.5845 130.558 70.4718C130.558 70.0438 130.501 69.6158 130.358 69.1879C130.215 68.7599 129.987 68.3605 129.673 67.9896C129.359 67.6187 128.96 67.3333 128.446 67.1051C127.933 66.8769 127.334 66.7627 126.592 66.7627C125.536 66.7627 124.623 67.048 123.853 67.6187C123.083 68.1893 122.683 69.2164 122.683 70.6715C122.683 71.4418 122.312 72.1265 121.542 72.7257C120.771 73.3248 119.744 73.6387 118.403 73.6387C117.348 73.6387 116.492 73.3534 115.807 72.7542C115.094 72.1836 114.751 71.0709 114.751 69.4446Z" fill="#00ADEE"/>
<path d="M153.668 89.5305H141.456C140.686 89.5305 140.058 89.3022 139.516 88.7887C139.003 88.3036 138.746 87.6189 138.746 86.7059C138.746 86.5062 138.774 86.2494 138.831 85.9641C138.889 85.6788 139.003 85.422 139.174 85.1367L151.214 61.5131C151.585 60.7427 152.098 60.2006 152.697 59.8868C153.297 59.573 153.953 59.4303 154.609 59.4303C154.951 59.4303 155.351 59.4874 155.836 59.63C156.321 59.7727 156.749 59.9724 157.177 60.2577C157.605 60.543 157.947 60.8568 158.261 61.2563C158.546 61.6272 158.689 62.0551 158.689 62.5116C158.689 62.7684 158.603 63.0823 158.432 63.5102L149.188 82.0268H153.668V78.3749C153.668 77.5189 154.096 76.8913 154.951 76.4918C155.807 76.1209 156.72 75.9212 157.747 75.9212C158.746 75.9212 159.688 76.1209 160.544 76.4918C161.399 76.8627 161.827 77.5189 161.827 78.3749V82.0268H164.053C164.88 82.0268 165.508 82.4263 165.936 83.1966C166.364 83.9669 166.564 84.8514 166.564 85.7929C166.564 86.7344 166.307 87.5904 165.765 88.3892C165.251 89.1596 164.681 89.559 164.024 89.559H161.799V95.094C161.799 95.9214 161.371 96.5491 160.515 96.9771C159.659 97.405 158.746 97.6047 157.719 97.6047C156.72 97.6047 155.779 97.405 154.923 96.9771C154.067 96.5491 153.639 95.9214 153.639 95.094V89.5305H153.668Z" fill="#00ADEE"/>
<path d="M188.076 57.2618C188.818 57.2618 189.503 57.5186 190.159 58.0322C190.815 58.5457 191.157 59.202 191.157 60.0293C191.157 60.4003 191.1 60.7426 190.958 61.0279L172.584 98.6603C172.412 99.0312 172.099 99.345 171.642 99.6018C171.186 99.8586 170.701 99.9727 170.216 99.9727C169.303 99.9727 168.589 99.6874 168.076 99.0882C167.562 98.4891 167.305 97.8614 167.305 97.2052C167.305 96.8914 167.391 96.549 167.562 96.2066L185.879 58.5743C186.079 58.1178 186.393 57.8039 186.764 57.5757C187.134 57.3474 187.591 57.2618 188.076 57.2618Z" fill="#00ADEE"/>
<path d="M186.507 57.2618C187.249 57.2618 187.934 57.5186 188.59 58.0322C189.246 58.5457 189.588 59.202 189.588 60.0293C189.588 60.4003 189.531 60.7426 189.389 61.0279L171.015 98.6603C170.844 99.0312 170.53 99.345 170.073 99.6018C169.617 99.8586 169.16 99.9727 168.675 99.9727C167.762 99.9727 167.049 99.6874 166.535 99.0882C166.022 98.4891 165.765 97.8614 165.765 97.2052C165.765 96.8914 165.851 96.549 166.022 96.2066L184.339 58.5743C184.539 58.1178 184.852 57.8039 185.223 57.5757C185.594 57.3474 186.022 57.2618 186.507 57.2618Z" fill="#00ADEE"/>
<path d="M218.291 68.4461C218.291 69.1308 218.119 69.9297 217.777 70.8427C217.435 71.7557 217.035 72.6116 216.636 73.4105L204.424 96.8059C204.054 97.5477 203.283 97.8901 202.142 97.8901C201.514 97.8901 200.887 97.7759 200.259 97.5762C199.631 97.3765 199.089 97.0912 198.576 96.7203C198.091 96.3494 197.691 95.9214 197.406 95.4078C197.121 94.8943 196.949 94.3522 196.949 93.7531C196.949 93.2966 197.063 92.8401 197.32 92.4121L210.159 70.1865V66.5345H200.83V70.0153C200.83 70.7 200.402 71.2992 199.574 71.7842C198.747 72.2692 197.777 72.526 196.693 72.526C195.58 72.526 194.638 72.2692 193.839 71.7842C193.069 71.2992 192.67 70.7 192.67 70.0153V61.9125C192.67 61.2848 193.041 60.7142 193.754 60.2006C194.496 59.6871 195.295 59.4303 196.208 59.4303H214.724C215.095 59.4303 215.494 59.4874 215.922 59.63C216.35 59.7727 216.721 59.9724 217.064 60.2006C217.406 60.4574 217.691 60.7142 217.92 60.9995C218.148 61.2848 218.262 61.5987 218.262 61.9125V68.4461H218.291Z" fill="#00ADEE"/>
</svg>
