<svg width="512" height="512" viewBox="0 0 512 512" fill="none" xmlns="http://www.w3.org/2000/svg">
<rect width="512" height="512" fill="white"/>
<path d="M441.953 458.148L408.609 429.588C407.786 428.761 407.375 427.519 407.786 426.278L425.075 386.956C425.898 384.886 424.251 382.817 422.193 383.231C382.263 391.509 350.566 386.956 326.28 374.954C296.641 360.466 276.882 335.631 263.297 309.969C246.832 278.926 239.422 247.055 235.305 232.155C234.482 229.672 230.778 229.257 229.954 231.741C220.486 253.264 216.369 276.029 216.369 300.036C216.369 301.278 216.369 302.519 216.369 303.347C207.313 299.622 199.492 294.241 192.494 288.033C174.382 271.476 163.267 246.642 163.267 215.599C163.267 158.066 202.373 120.814 252.183 120.814C301.992 120.814 341.099 158.066 341.099 215.599C341.099 256.162 321.752 286.376 292.936 300.864C290.467 302.105 289.643 305.002 290.878 307.486C294.171 312.867 297.875 318.248 301.992 323.214C317.224 341.84 335.335 353.843 357.153 359.224C405.315 329.009 434.954 277.271 434.954 215.599C434.954 116.261 357.565 43 252.183 43C146.801 43 69 115.847 69 215.599C69 301.692 127.042 367.916 210.607 384.059C219.662 385.714 229.13 386.956 239.011 387.785C240.246 387.785 241.48 388.612 242.304 389.44C253.829 407.238 268.649 422.966 286.761 435.383C331.22 467.668 389.673 475.945 441.953 462.7C442.364 462.7 443.187 459.804 441.953 458.148Z" fill="#00B579"/>
</svg>
